<svg width="95" height="95" viewBox="0 0 95 95" fill="none" xmlns="http://www.w3.org/2000/svg">
<rect width="95" height="95" rx="10" fill="#0076FE"/>
<path d="M0 58.5C37.1465 72.2318 57.9007 74.5204 95 68.5V85C95 90.5228 90.5229 95 85 95H10C4.47715 95 0 90.5228 0 85V58.5Z" fill="#0165D9"/>
<path d="M65.3114 37.096C65.3114 49.2993 53.8492 62.5065 47.5971 62.5065C41.345 62.5065 29.8828 49.2993 29.8828 37.096C29.8828 24.8927 37.8138 15 47.5971 15C57.3804 15 65.3114 24.8927 65.3114 37.096Z" fill="white"/>
<path d="M19.086 68.9549L39.0206 62.5782C40.0608 62.2454 40.7667 61.2785 40.7667 60.1864C40.7667 58.7996 41.8909 57.6753 43.2778 57.6753H52.7222C54.1091 57.6753 55.2333 58.7996 55.2333 60.1864C55.2333 61.2785 55.9392 62.2454 56.9794 62.5782L76.914 68.9549C78.1567 69.3524 79 70.5075 79 71.8123V78.026C79 79.6828 77.6569 81.026 76 81.026H20C18.3431 81.026 17 79.6828 17 78.026V71.8123C17 70.5075 17.8433 69.3524 19.086 68.9549Z" fill="white"/>
</svg>
