<svg width="95" height="95" viewBox="0 0 95 95" fill="none" xmlns="http://www.w3.org/2000/svg">
<rect width="95" height="95" rx="10" fill="#0076FE"/>
<path d="M0 58.5C37.1465 72.2318 57.9007 74.5204 95 68.5V85C95 90.5228 90.5229 95 85 95H10C4.47715 95 0 90.5228 0 85V58.5Z" fill="#0165D9"/>
<path fill-rule="evenodd" clip-rule="evenodd" d="M75.8307 43.9583C61.4603 28.987 33.9954 29.0013 20.0832 44.1253C18.6963 45.6331 18.6963 47.7374 20.0832 49.2452C33.9954 64.3691 61.4603 64.3835 75.8307 49.4122C77.3324 47.8477 77.3324 45.5227 75.8307 43.9583ZM13.7188 39.9945C30.8948 21.3223 64.5483 21.4405 82.0921 39.7177C85.9693 43.7571 85.9693 49.6134 82.0921 53.6527C64.5483 71.93 30.8948 72.0482 13.7188 53.3759C10.0937 49.4351 10.0937 43.9353 13.7188 39.9945Z" fill="white"/>
<path d="M59.958 46.6852C59.958 52.1723 54.6625 56.6205 48.1301 56.6205C41.5977 56.6205 36.3021 52.1723 36.3021 46.6852C36.3021 41.1981 41.5977 36.7499 48.1301 36.7499C54.6625 36.7499 59.958 41.1981 59.958 46.6852Z" fill="white"/>
</svg>
