<svg width="95" height="95" viewBox="0 0 95 95" fill="none" xmlns="http://www.w3.org/2000/svg">
<rect width="95" height="95" rx="10" fill="#0076FE"/>
<path d="M0 58.5C37.1465 72.2318 57.9007 74.5204 95 68.5V85C95 90.5228 90.5229 95 85 95H10C4.47715 95 0 90.5228 0 85V58.5Z" fill="#0165D9"/>
<path d="M58.5409 39.3989C58.5409 47.5344 50.8995 56.3392 46.7314 56.3392C42.5633 56.3392 34.9219 47.5344 34.9219 39.3989C34.9219 31.2634 40.2092 24.6682 46.7314 24.6682C53.2536 24.6682 58.5409 31.2634 58.5409 39.3989Z" fill="white"/>
<path d="M28.4195 60.4157L41.0139 56.387C41.7074 56.1651 42.1779 55.5206 42.1779 54.7925C42.1779 53.8679 42.9274 53.1184 43.852 53.1184H50.1483C51.0729 53.1184 51.8224 53.8679 51.8224 54.7925C51.8224 55.5206 52.293 56.1651 52.9864 56.387L65.5808 60.4157C66.8235 60.8132 67.6668 61.9683 67.6668 63.2731V65.6855C67.6668 67.3424 66.3237 68.6855 64.6668 68.6855H29.3335C27.6766 68.6855 26.3335 67.3424 26.3335 65.6855V63.2731C26.3335 61.9683 27.1768 60.8132 28.4195 60.4157Z" fill="white"/>
<path d="M80.671 48.218C80.671 53.8604 75.3713 59.9669 72.4805 59.9669C69.5898 59.9669 64.29 53.8604 64.29 48.218C64.29 42.5756 67.957 38.0016 72.4805 38.0016C77.004 38.0016 80.671 42.5756 80.671 48.218Z" fill="white"/>
<path d="M60.4195 62.5897L68.5151 60.0001C68.996 59.8462 69.3224 59.3992 69.3224 58.8942C69.3224 58.253 69.8422 57.7332 70.4834 57.7332H74.8502C75.4915 57.7332 76.0113 58.253 76.0113 58.8942C76.0113 59.3992 76.3376 59.8462 76.8186 60.0001L84.9142 62.5897C86.1569 62.9872 87.0002 64.1423 87.0002 65.4471V65.5297C87.0002 67.1865 85.657 68.5297 84.0002 68.5297H61.3335C59.6766 68.5297 58.3335 67.1865 58.3335 65.5297V65.4471C58.3335 64.1423 59.1768 62.9872 60.4195 62.5897Z" fill="white"/>
<path d="M31.338 48.218C31.338 53.8604 26.0383 59.9669 23.1475 59.9669C20.2568 59.9669 14.957 53.8604 14.957 48.218C14.957 42.5756 18.624 38.0016 23.1475 38.0016C27.671 38.0016 31.338 42.5756 31.338 48.218Z" fill="white"/>
<path d="M11.086 62.5897L19.1816 60.0001C19.6625 59.8462 19.9889 59.3992 19.9889 58.8942C19.9889 58.253 20.5087 57.7332 21.1499 57.7332H25.5167C26.158 57.7332 26.6778 58.253 26.6778 58.8942C26.6778 59.3992 27.0041 59.8462 27.4851 60.0001L35.5807 62.5897C36.8234 62.9872 37.6667 64.1423 37.6667 65.4471V65.5297C37.6667 67.1865 36.3235 68.5297 34.6667 68.5297H12C10.3431 68.5297 9 67.1865 9 65.5297V65.4471C9 64.1423 9.84328 62.9872 11.086 62.5897Z" fill="white"/>
</svg>
