<svg width="95" height="95" viewBox="0 0 95 95" fill="none" xmlns="http://www.w3.org/2000/svg">
<rect width="95" height="95" rx="10" fill="#0076FE"/>
<path d="M0 58.5C37.1465 72.2318 57.9007 74.5204 95 68.5V85C95 90.5228 90.5229 95 85 95H10C4.47715 95 0 90.5228 0 85V58.5Z" fill="#0165D9"/>
<path d="M21.2893 29.7998C21.4206 28.4679 22.4792 27.4753 23.8055 27.2956C26.5689 26.9213 31.3252 26.1906 34.7829 25.1994C38.6957 24.0777 44.2716 21.6687 46.7405 20.5688C47.5434 20.2111 48.4566 20.2111 49.2595 20.5688C51.7284 21.6687 57.3042 24.0777 61.2171 25.1994C64.6748 26.1906 69.4311 26.9213 72.1945 27.2956C73.5208 27.4753 74.5794 28.4679 74.7107 29.7998C75.541 38.2209 76.4442 68.1052 48.8006 76.1885C48.2882 76.3383 47.7118 76.3383 47.1994 76.1885C19.5558 68.1052 20.459 38.2209 21.2893 29.7998Z" fill="white"/>
</svg>
