<svg width="95" height="95" viewBox="0 0 95 95" fill="none" xmlns="http://www.w3.org/2000/svg">
<rect width="95" height="95" rx="10" fill="#0076FE"/>
<path d="M0 58.5C37.1465 72.2318 57.9007 74.5204 95 68.5V85C95 90.5228 90.5229 95 85 95H10C4.47715 95 0 90.5228 0 85V58.5Z" fill="#0165D9"/>
<path fill-rule="evenodd" clip-rule="evenodd" d="M54.9875 16.869L34.5433 34.1559C31.2948 36.9029 31.0796 41.8533 34.0788 44.8717L44.0873 54.9413C45.0071 55.8697 45.1955 57.2858 44.5647 58.4214L35.1695 75.2286C33.9135 77.4694 36.7155 79.7842 38.6738 78.117L59.1097 60.8411C62.3582 58.0941 62.5734 53.1437 59.5741 50.1253L49.5657 40.0557C48.6459 39.1273 48.4575 37.7112 49.0883 36.5756L58.4918 19.7574C59.7478 17.5166 56.9458 15.2017 54.9875 16.869Z" fill="white"/>
</svg>
