<svg width="40" height="40" viewBox="0 0 40 40" fill="none" xmlns="http://www.w3.org/2000/svg">
<path d="M18.0688 2.17266C18.6001 0.199294 21.3999 0.199287 21.9312 2.17265L25.0039 13.5848C25.1893 14.2731 25.7269 14.8107 26.4152 14.9961L37.8273 18.0688C39.8007 18.6001 39.8007 21.3999 37.8274 21.9312L26.4152 25.0039C25.7269 25.1893 25.1893 25.7269 25.0039 26.4152L21.9312 37.8273C21.3999 39.8007 18.6001 39.8007 18.0688 37.8274L14.9961 26.4152C14.8107 25.7269 14.2731 25.1893 13.5848 25.0039L2.17266 21.9312C0.199294 21.3999 0.199287 18.6001 2.17265 18.0688L13.5848 14.9961C14.2731 14.8107 14.8107 14.2731 14.9961 13.5848L18.0688 2.17266Z" fill="#0076FE"/>
</svg>
