<svg width="60" height="59" viewBox="0 0 60 59" fill="none" xmlns="http://www.w3.org/2000/svg">
<path d="M25.8404 41.8688C24.8381 41.8688 25.018 41.4833 24.6582 40.5324L21.7283 30.8688L39.9245 19.509L42.0577 20.0745L40.2843 24.9062L25.8404 41.8688Z" fill="#8FA1B0"/>
<path d="M25.8404 41.8688C26.6114 41.8688 26.9455 41.509 27.3825 41.0978C28.0507 40.4553 36.6348 32.1025 36.6348 32.1025L31.3661 30.8174L26.4829 33.9016L25.8404 41.6118L25.8404 41.8688Z" fill="#6E7E88"/>
<path d="M26.3544 34.0044L38.7937 43.1796C40.2072 43.9506 41.2353 43.5651 41.5951 41.8688L46.6582 18.0184C47.1722 15.9366 45.8614 15.0114 44.4993 15.6282L14.789 27.0908C12.7586 27.9132 12.7843 29.0441 14.4292 29.5324L22.0624 31.9226L39.7189 20.7941C40.5413 20.2801 41.3124 20.5628 40.6955 21.1282L26.3544 34.0044Z" fill="url(#paint0_linear_109_202)"/>
<defs>
<linearGradient id="paint0_linear_109_202" x1="33.8054" y1="28.6984" x2="40.2306" y2="38.9788" gradientUnits="userSpaceOnUse">
<stop stop-color="#DFDFDF"/>
<stop offset="1" stop-color="#D5D5D5"/>
</linearGradient>
</defs>
</svg>
