<svg width="58" height="55" viewBox="0 0 58 55" fill="none" xmlns="http://www.w3.org/2000/svg">
<path fill-rule="evenodd" clip-rule="evenodd" d="M49.6411 16.3919C49.9419 15.3889 49.6411 14.6519 48.2096 14.6519H43.4761C42.2725 14.6519 41.7176 15.2885 41.4167 15.9906C41.4167 15.9906 39.0095 21.858 35.5994 25.6693C34.4961 26.7725 33.9946 27.1236 33.3928 27.1236C33.092 27.1236 32.6564 26.7725 32.6564 25.7696V16.3919C32.6564 15.1883 32.3071 14.6519 31.304 14.6519H23.8656C23.1134 14.6519 22.6611 15.2105 22.6611 15.7399C22.6611 16.8809 24.3661 17.144 24.5418 20.3536V27.3242C24.5418 28.8525 24.2658 29.1296 23.664 29.1296C22.0593 29.1296 18.1559 23.236 15.8408 16.4921C15.3871 15.1813 14.932 14.6519 13.7222 14.6519H8.98868C7.63623 14.6519 7.36572 15.2885 7.36572 15.9906C7.36572 17.2443 8.97051 23.4628 14.8379 31.6872C18.7494 37.3037 24.2605 40.3483 29.2754 40.3483C32.2843 40.3483 32.6565 39.6721 32.6565 38.5073V34.2623C32.6565 32.9099 32.9415 32.64 33.8944 32.64C34.5964 32.64 35.8 32.991 38.6084 35.699C41.8179 38.9085 42.347 40.3483 44.1523 40.3483H48.8858C50.2383 40.3483 50.9145 39.6721 50.5244 38.3376C50.0975 37.0076 48.5652 35.0779 46.5319 32.7904C45.4285 31.4866 43.7737 30.0825 43.2721 29.3802C42.5701 28.4777 42.7707 28.0764 43.2721 27.2741C43.2721 27.2741 49.0393 19.15 49.6411 16.3919Z" fill="#95A3AA"/>
</svg>
